<svg width="77" height="81" xmlns="http://www.w3.org/2000/svg" xmlns:xlink="http://www.w3.org/1999/xlink" xml:space="preserve" overflow="hidden"><g transform="translate(-408 -605)"><path d="M40.1042 24.0625 36.8958 24.0625C35.1312 24.0625 33.6875 22.6187 33.6875 20.8542L33.6875 14.4375C33.6875 12.6729 35.1312 11.2292 36.8958 11.2292L40.1042 11.2292C41.8687 11.2292 43.3125 12.6729 43.3125 14.4375L43.3125 20.8542C43.3125 22.6187 41.8687 24.0625 40.1042 24.0625Z" transform="matrix(1 0 0 1.05195 408 605)"/><path d="M64.1667 40.1042 44.9167 40.1042 44.9167 36.8958 64.1667 36.8958 64.1667 40.1042ZM64.1667 49.7292 44.9167 49.7292 44.9167 46.5208 64.1667 46.5208 64.1667 49.7292ZM64.1667 59.3542 44.9167 59.3542 44.9167 56.1458 64.1667 56.1458 64.1667 59.3542ZM38.5 59.3542 12.8333 59.3542 12.8333 52.9375C12.8333 51.975 13.3146 51.0125 14.1167 50.3708 15.8812 49.0875 18.1271 47.9646 20.3729 47.3229 22.1375 46.8417 23.9021 46.5208 25.6667 46.5208 27.5917 46.5208 29.3562 46.8417 30.9604 47.3229 33.2062 47.9646 35.4521 48.9271 37.2167 50.3708 38.0187 51.0125 38.5 51.975 38.5 52.9375L38.5 59.3542ZM25.6667 32.0833C29.1958 32.0833 32.0833 34.9708 32.0833 38.5 32.0833 42.0292 29.1958 44.9167 25.6667 44.9167 22.1375 44.9167 19.25 42.0292 19.25 38.5 19.25 34.9708 22.1375 32.0833 25.6667 32.0833ZM67.375 20.8542 46.5208 20.8542C46.5208 24.3833 43.6333 27.2708 40.1042 27.2708L36.8958 27.2708C33.3667 27.2708 30.4792 24.3833 30.4792 20.8542L9.625 20.8542C7.86042 20.8542 6.41667 22.2979 6.41667 24.0625L6.41667 62.5625C6.41667 64.3271 7.86042 65.7708 9.625 65.7708L67.375 65.7708C69.1396 65.7708 70.5833 64.3271 70.5833 62.5625L70.5833 24.0625C70.5833 22.2979 69.1396 20.8542 67.375 20.8542Z" transform="matrix(1 0 0 1.05195 408 605)"/></g></svg>